# xmcd
#
# Track frame offsets:
#	150
#	13666
#	22703
#	34585
#	44703
#	63297
#	81654
#	89999
#	100142
#	106324
#	115738
#	127977
#	140543
#	160479
#	171830
#
# Disc length: 2610 seconds
#
# Revision: 0
# Processed by: cddbd v1.5.2PL0 Copyright (c) Steve Scherf et al.
# Submitted via: EasyCDDAExtractor 12.0.4.1
#
DISCID=c90a300f
DTITLE=La Fanfare Monfarleau - La Fanfare
DYEAR=2014
DGENRE=Folklore
TTITLE0=Quadrille des Lanciers
TTITLE1=John Pomerleau
TTITLE2=Valse Marianne
TTITLE3=Marche du Mont Saint-Louis
TTITLE4=Calypsos du Petit-Pabos
TTITLE5=La Bastringue
TTITLE6=Reel Joseph
TTITLE7=Partie du Lancier
TTITLE8=La guenille
TTITLE9=Reel du capitaine du 22e
TTITLE10=Hommage a Dorothee
TTITLE11=Johnny Monfarleau
TTITLE12=Reel St-Jean -Ah les femmes
TTITLE13=Mere de Dieu
TTITLE14=Suite de Valcartier
EXTD=
EXTT0=
EXTT1=
EXTT2=
EXTT3=
EXTT4=
EXTT5=
EXTT6=
EXTT7=
EXTT8=
EXTT9=
EXTT10=
EXTT11=
EXTT12=
EXTT13=
EXTT14=
PLAYORDER=
